<?xml version="1.0" encoding="UTF-8" standalone="no"?>
<!-- Created with Inkscape (http://www.inkscape.org/) -->

<svg
   xmlns:dc="http://purl.org/dc/elements/1.1/"
   xmlns:cc="http://creativecommons.org/ns#"
   xmlns:rdf="http://www.w3.org/1999/02/22-rdf-syntax-ns#"
   xmlns:svg="http://www.w3.org/2000/svg"
   xmlns="http://www.w3.org/2000/svg"
   xmlns:sodipodi="http://sodipodi.sourceforge.net/DTD/sodipodi-0.dtd"
   xmlns:inkscape="http://www.inkscape.org/namespaces/inkscape"
   width="25.4mm"
   height="25.4mm"
   viewBox="0 0 58.700001 58.5"
   version="1.1"
   id="svg1702"
   inkscape:version="0.92.4 (33fec40, 2019-01-16)"
   sodipodi:docname="infoenergy_box.svg">
  <defs
     id="defs1696">
    <clipPath
       clipPathUnits="userSpaceOnUse"
       id="clipPath411">
      <path
         d="M 551.584,663.111 H 671.473 V 534 H 551.584 Z"
         id="path409"
         inkscape:connector-curvature="0" />
    </clipPath>
    <clipPath
       clipPathUnits="userSpaceOnUse"
       id="clipPath491">
      <path
         d="M 0,1080 H 1920 V 0 H 0 Z"
         id="path489"
         inkscape:connector-curvature="0" />
    </clipPath>
    <clipPath
       clipPathUnits="userSpaceOnUse"
       id="clipPath503">
      <path
         d="M 799.654,645.668 H 917.565 V 534.011 H 799.654 Z"
         id="path501"
         inkscape:connector-curvature="0" />
    </clipPath>
    <clipPath
       clipPathUnits="userSpaceOnUse"
       id="clipPath573">
      <path
         d="M 0,1080 H 1920 V 0 H 0 Z"
         id="path571"
         inkscape:connector-curvature="0" />
    </clipPath>
    <clipPath
       clipPathUnits="userSpaceOnUse"
       id="clipPath585">
      <path
         d="m 1032.22,658.968 h 131.62 V 534.075 h -131.62 z"
         id="path583"
         inkscape:connector-curvature="0" />
    </clipPath>
    <clipPath
       clipPathUnits="userSpaceOnUse"
       id="clipPath625">
      <path
         d="m 1038.92,640.984 h 18.45 V 622.54 h -18.45 z"
         id="path623"
         inkscape:connector-curvature="0" />
    </clipPath>
    <clipPath
       clipPathUnits="userSpaceOnUse"
       id="clipPath411-3">
      <path
         d="M 551.584,663.111 H 671.473 V 534 H 551.584 Z"
         id="path409-6"
         inkscape:connector-curvature="0" />
    </clipPath>
    <clipPath
       clipPathUnits="userSpaceOnUse"
       id="clipPath491-7">
      <path
         d="M 0,1080 H 1920 V 0 H 0 Z"
         id="path489-5"
         inkscape:connector-curvature="0" />
    </clipPath>
    <clipPath
       clipPathUnits="userSpaceOnUse"
       id="clipPath503-3">
      <path
         d="M 799.654,645.668 H 917.565 V 534.011 H 799.654 Z"
         id="path501-5"
         inkscape:connector-curvature="0" />
    </clipPath>
    <clipPath
       clipPathUnits="userSpaceOnUse"
       id="clipPath573-6">
      <path
         d="M 0,1080 H 1920 V 0 H 0 Z"
         id="path571-2"
         inkscape:connector-curvature="0" />
    </clipPath>
    <clipPath
       clipPathUnits="userSpaceOnUse"
       id="clipPath585-9">
      <path
         d="m 1032.22,658.968 h 131.62 V 534.075 h -131.62 z"
         id="path583-1"
         inkscape:connector-curvature="0" />
    </clipPath>
    <clipPath
       clipPathUnits="userSpaceOnUse"
       id="clipPath625-2">
      <path
         d="m 1038.92,640.984 h 18.45 V 622.54 h -18.45 z"
         id="path623-7"
         inkscape:connector-curvature="0" />
    </clipPath>
  </defs>
  <sodipodi:namedview
     id="base"
     pagecolor="#ffffff"
     bordercolor="#666666"
     borderopacity="1.0"
     inkscape:pageopacity="0.0"
     inkscape:pageshadow="2"
     inkscape:zoom="3.7906698"
     inkscape:cx="113.7003"
     inkscape:cy="19.858823"
     inkscape:document-units="mm"
     inkscape:current-layer="layer1"
     showgrid="false"
     inkscape:window-width="1853"
     inkscape:window-height="1025"
     inkscape:window-x="1987"
     inkscape:window-y="27"
     inkscape:window-maximized="1" />
  <metadata
     id="metadata1699">
    <rdf:RDF>
      <cc:Work
         rdf:about="">
        <dc:format>image/svg+xml</dc:format>
        <dc:type
           rdf:resource="http://purl.org/dc/dcmitype/StillImage" />
        <dc:title></dc:title>
      </cc:Work>
    </rdf:RDF>
  </metadata>
  <g
     inkscape:label="Layer 1"
     inkscape:groupmode="layer"
     id="layer1"
     transform="translate(1.9181514e-5,-238.5)"
     style="display:inline">
    <g
       transform="matrix(0.43546058,0,0,-0.43546058,-442.10245,534.21382)"
       id="g567">
      <g
         id="g569"
         clip-path="url(#clipPath573-6)">
        <g
           id="g575"
           transform="matrix(0.9960475,0,0,0.99490989,1080.8917,699.53192)"
           style="opacity:0.6">
          <rect
             style="fill:#bbc92f;fill-opacity:1;stroke-width:0.75"
             id="rect4761"
             width="167.05399"
             height="166.67517"
             x="-83.378815"
             y="-0.29636523"
             transform="scale(1,-1)" />
        </g>
        <g
           id="g579">
          <g
             id="g581" />
          <g
             id="g593">
            <g
               clip-path="url(#clipPath585-9)"
               id="g591"
               style="opacity:0.25">
              <g
                 transform="translate(1084.252,534.0754)"
                 id="g589">
                <path
                   d="m 0,0 c 44.258,1.789 79.591,38.228 79.591,82.925 0,2.691 -0.133,5.352 -0.384,7.978 l -33.99,33.99 -44.509,-47.762 -40.727,40.726 -12.017,-3.77 42.975,-42.975 -42.975,-19.076 z"
                   style="fill:#96b633;fill-opacity:1;fill-rule:nonzero;stroke:none"
                   id="path587"
                   inkscape:connector-curvature="0" />
              </g>
            </g>
          </g>
        </g>
        <g
           id="g595"
           transform="translate(1080.8425,568.8829)">
          <path
             d="m 0,0 c -1.618,0 -2.934,1.316 -2.934,2.934 0,1.618 1.316,2.935 2.934,2.935 1.618,0 2.934,-1.317 2.934,-2.935 C 2.934,1.316 1.618,0 0,0 M 1.677,8.989 V 25.99 H -1.677 V 8.989 C -4.331,8.252 -6.288,5.821 -6.288,2.934 c 0,-3.467 2.821,-6.288 6.288,-6.288 3.467,0 6.288,2.821 6.288,6.288 0,2.886 -1.957,5.318 -4.611,6.055"
             style="fill:#ffffff;fill-opacity:1;fill-rule:nonzero;stroke:none"
             id="path597"
             inkscape:connector-curvature="0" />
        </g>
        <g
           id="g599"
           transform="translate(1082.5193,577.8715)">
          <path
             d="m 0,0 v 17.001 h -1.863 v -20.14 c 0.063,0.004 0.123,0.019 0.186,0.019 1.618,0 2.935,-1.316 2.935,-2.934 0,-1.618 -1.317,-2.935 -2.935,-2.935 -0.063,0 -0.123,0.015 -0.186,0.019 v -3.363 c 0.063,-10e-4 0.124,-0.009 0.186,-0.009 3.467,0 6.288,2.821 6.288,6.288 C 4.611,-3.168 2.654,-0.737 0,0"
             style="fill:#d0d1d3;fill-opacity:1;fill-rule:nonzero;stroke:none"
             id="path601"
             inkscape:connector-curvature="0" />
        </g>
        <path
           d="m 1035.57,656.493 h 90.545 v -67.909 h -90.545 z"
           style="fill:#e9eff4;fill-opacity:1;fill-rule:nonzero;stroke:none"
           id="path603"
           inkscape:connector-curvature="0" />
        <path
           d="m 1080.658,656.493 h 45.457 v -67.909 h -45.457 z"
           style="fill:#cfdbe6;fill-opacity:1;fill-rule:nonzero;stroke:none"
           id="path605"
           inkscape:connector-curvature="0" />
        <path
           d="m 1032.216,596.918 h 97.252 v -10.806 h -97.252 z"
           style="fill:#05bea6;fill-opacity:1;fill-rule:nonzero;stroke:none"
           id="path607"
           inkscape:connector-curvature="0" />
        <path
           d="m 1032.216,658.969 h 97.252 v -10.806 h -97.252 z"
           style="fill:#05bea6;fill-opacity:1;fill-rule:nonzero;stroke:none"
           id="path609"
           inkscape:connector-curvature="0" />
        <path
           d="m 1080.658,596.918 h 48.811 v -10.806 h -48.811 z"
           style="fill:#2c9984;fill-opacity:1;fill-rule:nonzero;stroke:none"
           id="path611"
           inkscape:connector-curvature="0" />
        <path
           d="m 1080.658,658.969 h 48.811 v -10.806 h -48.811 z"
           style="fill:#2c9984;fill-opacity:1;fill-rule:nonzero;stroke:none"
           id="path613"
           inkscape:connector-curvature="0" />
        <g
           id="g615"
           transform="translate(1057.3678,640.9834)">
          <path
             d="m 0,0 c 10.187,0 18.444,-8.258 18.444,-18.444 0,-10.187 -8.257,-18.445 -18.444,-18.445 -10.187,0 -18.444,8.258 -18.444,18.445 C -18.444,-8.258 -10.187,0 0,0"
             style="fill:#e1e723;fill-opacity:1;fill-rule:nonzero;stroke:none"
             id="path617"
             inkscape:connector-curvature="0" />
        </g>
        <g
           id="g619">
          <g
             id="g621" />
          <g
             id="g633">
            <g
               clip-path="url(#clipPath625-2)"
               id="g631">
              <g
                 transform="translate(1038.9233,622.54)"
                 id="g629">
                <path
                   d="M 0,0 C 0,10.186 8.258,18.444 18.444,18.444 V 0 Z"
                   style="fill:#e1e723;fill-opacity:1;fill-rule:nonzero;stroke:none"
                   id="path627"
                   inkscape:connector-curvature="0" />
              </g>
            </g>
          </g>
        </g>
        <path
           d="m 1090.065,631.761 h 27.667 v -1.677 h -27.667 z"
           style="fill:#808183;fill-opacity:1;fill-rule:nonzero;stroke:none"
           id="path635"
           inkscape:connector-curvature="0" />
        <path
           d="m 1090.065,625.266 h 27.667 v -1.677 h -27.667 z"
           style="fill:#808183;fill-opacity:1;fill-rule:nonzero;stroke:none"
           id="path637"
           inkscape:connector-curvature="0" />
        <path
           d="m 1090.065,618.766 h 27.667 v -1.677 h -27.667 z"
           style="fill:#808183;fill-opacity:1;fill-rule:nonzero;stroke:none"
           id="path639"
           inkscape:connector-curvature="0" />
      </g>
    </g>
  </g>
</svg>
