<svg width="114" height="114" viewBox="0 0 114 114" fill="none" xmlns="http://www.w3.org/2000/svg">
<rect x="1" y="1" width="112" height="112" fill="#CDFF80"/>
<rect x="1" y="1" width="112" height="112" stroke="#0C4C27" stroke-width="2"/>
<path d="M72 49.5569C75.3361 51.5941 78.0971 54.476 80.0138 57.9219C81.9306 61.3679 82.9378 65.2604 82.9375 69.2203V80.7288" stroke="#0C4C27" stroke-width="2" stroke-linecap="round" stroke-linejoin="round"/>
<path d="M43.5625 29.5179H39.1875C38.6073 29.5179 38.0509 29.7525 37.6407 30.17C37.2305 30.5876 37 31.1539 37 31.7444V69.596" stroke="#0C4C27" stroke-width="2" stroke-linecap="round" stroke-linejoin="round"/>
<path d="M65.6945 80.7288L59.6078 71.2659C58.894 69.9881 58.7058 68.4748 59.0841 67.0563C59.4625 65.6377 60.3768 64.4291 61.6274 63.6941C62.878 62.9591 64.3635 62.7575 65.7597 63.1332C67.1558 63.5089 68.3493 64.4315 69.0796 65.6995L71.9999 70.2389V31.7444C71.9999 31.1539 71.7695 30.5876 71.3592 30.17C70.949 29.7525 70.3926 29.5179 69.8124 29.5179H65.4374H43.1908" stroke="#0C4C27" stroke-width="2" stroke-linecap="round" stroke-linejoin="round"/>
<path d="M56.3876 38.7126L55.2401 44.5053L59.8303 46.2431L51.7975 54.9321L52.945 49.1394L48.3549 47.4016L56.3876 38.7126Z" stroke="#0C4C27" stroke-width="2" stroke-linecap="round" stroke-linejoin="round"/>
</svg>
